<svg xmlns="http://www.w3.org/2000/svg" xmlns:xlink="http://www.w3.org/1999/xlink" viewBox="0 0 256 257"><defs><style>.cls-1{fill:none;}.cls-2{clip-path:url(#clip-path);}.cls-3{fill:#ff2b15;}.cls-4{fill:url(#linear-gradient);}.cls-5{fill:url(#linear-gradient-2);}.cls-6{fill:url(#linear-gradient-3);}.cls-7{fill:url(#linear-gradient-4);}.cls-8{fill:url(#linear-gradient-5);}.cls-9{fill:url(#linear-gradient-6);}</style><clipPath id="clip-path"><circle class="cls-1" cx="128" cy="128.5" r="120.5"/></clipPath><linearGradient id="linear-gradient" x1="93.5" y1="96.99" x2="114.5" y2="96.99" gradientUnits="userSpaceOnUse"><stop offset="0" stop-color="#fff"/><stop offset="1" stop-color="#fff"/></linearGradient><linearGradient id="linear-gradient-2" x1="125" y1="95.24" x2="149.5" y2="95.24" xlink:href="#linear-gradient"/><linearGradient id="linear-gradient-3" x1="79.49" y1="128.5" x2="184.51" y2="128.5" xlink:href="#linear-gradient"/><linearGradient id="linear-gradient-4" x1="93.5" y1="133.75" x2="132" y2="133.75" xlink:href="#linear-gradient"/><linearGradient id="linear-gradient-5" x1="137.25" y1="126.75" x2="147.75" y2="126.75" xlink:href="#linear-gradient"/><linearGradient id="linear-gradient-6" x1="137.25" y1="140.75" x2="147.75" y2="140.75" xlink:href="#linear-gradient"/></defs><title>Asset 3</title><g id="Layer_2" data-name="Layer 2"><g id="Layer_1-2" data-name="Layer 1"><g class="cls-2"><rect class="cls-3" width="256" height="257"/></g><path class="cls-4" d="M104,86.49A10.5,10.5,0,1,0,114.5,97,10.5,10.5,0,0,0,104,86.49Zm0,17.5a7,7,0,1,1,7-7A7,7,0,0,1,104,104Z"/><path class="cls-5" d="M137.25,107.49A12.25,12.25,0,1,0,125,95.24,12.24,12.24,0,0,0,137.25,107.49Zm0-21a8.75,8.75,0,1,1-8.75,8.75A8.75,8.75,0,0,1,137.25,86.49Z"/><path class="cls-6" d="M182.92,112.49a3.5,3.5,0,0,0-3.32-.28l-23.1,10.11v-6.08a5.26,5.26,0,0,0-5.25-5.25h-3a19.24,19.24,0,1,0-29-22.54A17.49,17.49,0,1,0,93.54,111H91.75a5.26,5.26,0,0,0-5.25,5.25V125H83a3.5,3.5,0,0,0-3.5,3.5V139a3.51,3.51,0,0,0,3.5,3.5H86.5v8.75a5.25,5.25,0,0,0,5.25,5.25H104v5.25a5.25,5.25,0,0,0,5.25,5.25h8l-11,11a1.76,1.76,0,0,0-.46,1.7,1.75,1.75,0,0,0,2.93.78l12.77-12.76,12.76,12.76a1.75,1.75,0,0,0,2.48-2.48l-11-11h8a5.25,5.25,0,0,0,5.25-5.25V156.5h12.25a5.25,5.25,0,0,0,5.25-5.25v-6.08l23.1,10.11a3.51,3.51,0,0,0,4.91-3.21V115.42A3.51,3.51,0,0,0,182.92,112.49Zm-45.67-33A15.75,15.75,0,1,1,121.5,95.24,15.75,15.75,0,0,1,137.25,79.49Zm-11,31.5H114.45a17.55,17.55,0,0,0,5.63-7.1A19.21,19.21,0,0,0,126.22,111ZM90,97a14,14,0,1,1,14,14A14,14,0,0,1,90,97Zm-7,42V128.5H86.5V139Zm52.51,22.75a1.75,1.75,0,0,1-1.75,1.75h-24.5a1.75,1.75,0,0,1-1.75-1.75V156.5h28Zm17.5-10.5a1.75,1.75,0,0,1-1.75,1.75H91.75A1.75,1.75,0,0,1,90,151.25v-35a1.76,1.76,0,0,1,1.75-1.75h59.5a1.76,1.76,0,0,1,1.75,1.75Zm28,.82L156.5,141.35V126.14L181,115.42Z"/><path class="cls-7" d="M128.5,121.5H97a3.49,3.49,0,0,0-3.5,3.5v17.5A3.5,3.5,0,0,0,97,146h31.5a3.5,3.5,0,0,0,3.5-3.5V125A3.5,3.5,0,0,0,128.5,121.5Zm-8.75,12.25A8.75,8.75,0,0,1,128.5,125v17.5h0A8.76,8.76,0,0,1,119.75,133.75Zm-14,0A8.77,8.77,0,0,1,97,142.5V125A8.76,8.76,0,0,1,105.75,133.75Zm-.2,8.75a12.2,12.2,0,0,0,0-17.5h14.39a12.22,12.22,0,0,0,0,17.5Z"/><path class="cls-8" d="M142.5,121.5a5.25,5.25,0,1,0,5.25,5.25A5.25,5.25,0,0,0,142.5,121.5Zm0,7a1.75,1.75,0,1,1,1.75-1.75A1.75,1.75,0,0,1,142.5,128.5Z"/><path class="cls-9" d="M142.5,135.5a5.25,5.25,0,1,0,5.25,5.25A5.25,5.25,0,0,0,142.5,135.5Zm0,7a1.75,1.75,0,1,1,1.75-1.75A1.75,1.75,0,0,1,142.5,142.5Z"/></g></g></svg>