<svg xmlns="http://www.w3.org/2000/svg" xmlns:xlink="http://www.w3.org/1999/xlink" viewBox="0 0 256 257"><defs><style>.cls-1{fill:none;}.cls-2{clip-path:url(#clip-path);}.cls-3{fill:#ff6d00;}.cls-4{fill:url(#linear-gradient);}.cls-5{fill:url(#linear-gradient-2);}.cls-6{fill:url(#linear-gradient-3);}.cls-7{fill:url(#linear-gradient-4);}.cls-8{fill:url(#linear-gradient-5);}.cls-9{fill:url(#linear-gradient-6);}.cls-10{fill:url(#linear-gradient-7);}</style><clipPath id="clip-path"><circle class="cls-1" cx="128" cy="128.5" r="120.5"/></clipPath><linearGradient id="linear-gradient" x1="75.86" y1="174.16" x2="174.3" y2="174.16" gradientUnits="userSpaceOnUse"><stop offset="0" stop-color="#fff"/><stop offset="1" stop-color="#fff"/></linearGradient><linearGradient id="linear-gradient-2" x1="119.69" y1="91.97" x2="130.65" y2="91.97" xlink:href="#linear-gradient"/><linearGradient id="linear-gradient-3" x1="139.78" y1="91.97" x2="150.74" y2="91.97" xlink:href="#linear-gradient"/><linearGradient id="linear-gradient-4" x1="101.43" y1="91.97" x2="112.39" y2="91.97" xlink:href="#linear-gradient"/><linearGradient id="linear-gradient-5" x1="79.51" y1="143.11" x2="170.83" y2="143.11" xlink:href="#linear-gradient"/><linearGradient id="linear-gradient-6" x1="155.49" y1="138.73" x2="180.14" y2="138.73" xlink:href="#linear-gradient"/><linearGradient id="linear-gradient-7" x1="88.62" y1="146.75" x2="116.07" y2="146.75" xlink:href="#linear-gradient"/></defs><title>Asset 9</title><g id="Layer_2" data-name="Layer 2"><g id="Layer_1-2" data-name="Layer 1"><g class="cls-2"><rect class="cls-3" width="256" height="257"/></g><path class="cls-4" d="M139.41,181.46H109.1a5.25,5.25,0,0,1-4.75-2.92,1.36,1.36,0,0,0-1.28-.91L79.88,176c-2.56-.54-4-2.19-4-4.38a4.72,4.72,0,0,1,4.75-4.75h88.94a4.72,4.72,0,0,1,4.75,4.75c0,2.19-1.46,3.84-4,4.38h-.18l-24.84,1.65a1.36,1.36,0,0,0-1.28.91A4.81,4.81,0,0,1,139.41,181.46Zm-59-9.13L103.25,174a5.72,5.72,0,0,1,4.39,2.93,1.87,1.87,0,0,0,1.46.91h30.5a1.9,1.9,0,0,0,1.46-.91,5.69,5.69,0,0,1,4.38-2.93l24.47-1.64c.92-.18.92-.55.92-.73a1.18,1.18,0,0,0-1.1-1.1H80.61a1.18,1.18,0,0,0-1.1,1.1C79.51,171.78,79.51,172.15,80.43,172.33Z"/><path class="cls-5" d="M125.17,108.41a1.65,1.65,0,0,1-1.28-.55c-2.74-2.92-4.2-5.84-4.2-8.76s1.46-5.66,4.2-8.4c2-1.83,3.11-3.84,3.11-5.85s-1.1-4-3.11-6.21a1.81,1.81,0,0,1,2.56-2.55,12,12,0,0,1,4.2,8.76c0,2.92-1.46,5.85-4.2,8.4-2,1.83-3.11,3.84-3.11,5.85s1.1,4,3.11,6.21a1.76,1.76,0,0,1,0,2.55A1.65,1.65,0,0,1,125.17,108.41Z"/><path class="cls-6" d="M145.26,108.41a1.65,1.65,0,0,1-1.28-.55c-2.74-2.92-4.2-5.84-4.2-8.76s1.46-5.66,4.2-8.4c2-2,3.1-3.84,3.1-5.85s-1.09-4-3.1-6.21a1.81,1.81,0,0,1,2.56-2.55c2.92,2.73,4.2,5.66,4.2,8.76,0,2.92-1.46,5.85-4.39,8.4-2,1.83-3.1,3.84-3.1,5.85s1.1,4,3.1,6.21a1.76,1.76,0,0,1,0,2.55A1.28,1.28,0,0,1,145.26,108.41Z"/><path class="cls-7" d="M106.91,108.41a1.64,1.64,0,0,1-1.28-.55c-2.74-2.92-4.2-5.84-4.2-8.76s1.46-5.66,4.2-8.4c2-2,3.1-3.84,3.1-5.85s-1.09-4-3.1-6.21a1.8,1.8,0,0,1,2.55-2.55c2.93,2.73,4.21,5.66,4.21,8.76,0,2.92-1.47,5.85-4.39,8.4-2,1.83-3.1,3.84-3.1,5.85s1.09,4,3.1,6.21a1.76,1.76,0,0,1,0,2.55A1.28,1.28,0,0,1,106.91,108.41Z"/><path class="cls-8" d="M125.17,170.5c-39.81,0-45.48-25.75-45.66-51.13a3.74,3.74,0,0,1,3.65-3.65h84a3.74,3.74,0,0,1,3.66,3.65C170.64,144.75,165,170.5,125.17,170.5Zm-42-51.13c.19,24.65,5.48,47.48,42,47.48s41.82-22.83,42-47.48Z"/><path class="cls-9" d="M155.49,158.09l2.92-3.47c7.49-9.32,8.76-22.65,9-33.43v-1.27l1.46-.55h.36c6,0,11,6.57,11,14.61,0,10.41-6.21,21.73-20.09,23.56Zm15.34-34.7c-.37,9.49-1.46,20.45-6.94,29.4,9.13-3.11,12.42-11.69,12.42-18.81C176.31,128.87,173.93,124.48,170.83,123.39Z"/><path class="cls-10" d="M114.21,161.37h-.36c-14.43-2.55-22.28-10.77-25.21-27a1.87,1.87,0,0,1,3.66-.73c2.74,14.61,9.31,21.92,22.28,24.11a1.9,1.9,0,0,1,1.46,2.19A1.78,1.78,0,0,1,114.21,161.37Z"/></g></g></svg>