<svg xmlns="http://www.w3.org/2000/svg" xmlns:xlink="http://www.w3.org/1999/xlink" viewBox="0 0 256 257"><defs><style>.cls-1{fill:none;}.cls-2{clip-path:url(#clip-path);}.cls-3{fill:#00695c;}.cls-4{fill:#fff;}</style><clipPath id="clip-path"><circle class="cls-1" cx="128" cy="128.5" r="120.5"/></clipPath></defs><title>Asset 1</title><g id="Layer_2" data-name="Layer 2"><g id="Layer_1-2" data-name="Layer 1"><g class="cls-2"><rect class="cls-3" width="256" height="257"/></g><circle class="cls-4" cx="139.85" cy="106.78" r="3.95" transform="translate(-15.3 23.78) rotate(-9.22)"/><path class="cls-4" d="M130,118.63v-4h-2.72l2.52-5-3.54-1.76-4,7.9a2,2,0,0,0,1.77,2.86Z"/><path class="cls-4" d="M125.56,122.58h-1.51v4h1.51a20.8,20.8,0,0,0,9.25-2.19L133,120.81A16.89,16.89,0,0,1,125.56,122.58Z"/><path class="cls-4" d="M166,151.4a26.17,26.17,0,0,0-3.74-25.48,22.32,22.32,0,0,1-4.61-12,7.87,7.87,0,0,0-.06-10.37V98.88a29.63,29.63,0,1,0-59.25,0v14.51a19.13,19.13,0,0,1-4,11.68L93,126.78A26.68,26.68,0,0,0,90,151.4a17.75,17.75,0,0,0-5.43,12.77v23.58h4V164.17a13.85,13.85,0,0,1,12.1-13.72l7.65-1v38.26h4v-37.5l14.09,24.65a2,2,0,0,0,3.42,0l14.09-24.65v37.5h3.95V149.5l7.65.95a13.85,13.85,0,0,1,12.1,13.72v23.58h3.95V164.17A17.78,17.78,0,0,0,166,151.4Zm-14.44-46.6h.11a4,4,0,1,1,0,7.9h-.58ZM100.1,146.53a17.67,17.67,0,0,0-6.82,2.34,22.7,22.7,0,0,1,2.94-19.75l1.27-1.62a23.18,23.18,0,0,0,4.83-14.11V98.88a25.68,25.68,0,0,1,51.36,0v2.22a8.14,8.14,0,0,0-2-.25h-1.3c-7.18-5.69-12.68-16.57-12.73-16.68a2,2,0,0,0-3.38-.27c-9.51,13.32-28.84,25-29,25.13a2,2,0,0,0-1,1.85l.47,6.16a23.23,23.23,0,0,0,11.35,18.12v7.62a2,2,0,0,1-1.72,2Zm27.72-12.1a19.27,19.27,0,0,1-19.1-17.7l-.38-5c1-.6,2.51-1.6,4.45-2.93a3.95,3.95,0,1,0,6.37-4.62,98.86,98.86,0,0,0,16.47-15.55c2.18,3.78,6.58,10.62,12.06,15.07l-.75,12.66A19.18,19.18,0,0,1,127.82,134.43Zm.18,35.51L115.75,148.5a5.91,5.91,0,0,0,4.33-5.74V137a22.88,22.88,0,0,0,15.84-.11v5.84a5.93,5.93,0,0,0,4.33,5.75Zm13.6-25.19a2,2,0,0,1-1.73-2V135a23.1,23.1,0,0,0,11-18.33h.82a7.88,7.88,0,0,0,2.29-.34,26.28,26.28,0,0,0,5.18,12,22.16,22.16,0,0,1,3.56,20.52,17.65,17.65,0,0,0-6.84-2.34Z"/></g></g></svg>