<svg xmlns="http://www.w3.org/2000/svg" xmlns:xlink="http://www.w3.org/1999/xlink" viewBox="0 0 256 257"><defs><style>.cls-1{fill:none;}.cls-2{clip-path:url(#clip-path);}.cls-3{fill:#009f12;}.cls-4{fill:#fff;}.cls-5{fill:url(#linear-gradient);}.cls-6{fill:url(#linear-gradient-2);}</style><clipPath id="clip-path"><circle class="cls-1" cx="128" cy="128.5" r="120.5"/></clipPath><linearGradient id="linear-gradient" x1="69.65" y1="110.89" x2="162.4" y2="110.89" gradientUnits="userSpaceOnUse"><stop offset="0" stop-color="#fff"/><stop offset="1" stop-color="#fff"/></linearGradient><linearGradient id="linear-gradient-2" x1="103.56" y1="153.71" x2="155.52" y2="153.71" xlink:href="#linear-gradient"/></defs><title>Asset 2</title><g id="Layer_2" data-name="Layer 2"><g id="Layer_1-2" data-name="Layer 1"><g class="cls-2"><rect class="cls-3" width="256" height="257"/></g><path class="cls-4" d="M172,94H102.45a2.15,2.15,0,0,0-2.22,2.91l10,34.55a2.2,2.2,0,0,0,2.22,1.56h49.72a2.2,2.2,0,0,0,2.22-1.56l9.81-34.55A2.19,2.19,0,0,0,172,94ZM160.65,128.3H114.26l-2-6.91h50.41Zm3.12-11.39H110.84l-2-6.9h56.92Zm3.33-11.58H107.58l-2-6.91h63.56Z"/><path class="cls-5" d="M90.18,79A2.15,2.15,0,0,0,88,77.23H69.65v4.46H86.14l15.17,61.09a2.17,2.17,0,0,0,2.23,1.78H162.4v-4.68H105.33Z"/><rect class="cls-6" x="103.56" y="151.48" width="51.97" height="4.47"/><path class="cls-4" d="M152.83,162a8.91,8.91,0,1,0,8.91,8.91,8.94,8.94,0,0,0-8.91-8.91Zm0,13.16a4.39,4.39,0,0,1-4.23-4.23,4.23,4.23,0,0,1,8.46,0,4.36,4.36,0,0,1-4.23,4.23Z"/><path class="cls-4" d="M109.58,162a8.91,8.91,0,1,0,8.91,8.91,8.94,8.94,0,0,0-8.91-8.91Zm0,13.16a4.39,4.39,0,0,1-4.23-4.23,4.23,4.23,0,0,1,4.23-4.23,4.23,4.23,0,0,1,0,8.46Z"/></g></g></svg>