<svg xmlns="http://www.w3.org/2000/svg" xmlns:xlink="http://www.w3.org/1999/xlink" viewBox="0 0 256 257"><defs><style>.cls-1{fill:none;}.cls-2{clip-path:url(#clip-path);}.cls-3{fill:#ff237a;}.cls-4{fill:url(#linear-gradient);}.cls-5{fill:url(#linear-gradient-2);}</style><clipPath id="clip-path"><circle class="cls-1" cx="128.5" cy="128.5" r="120.5"/></clipPath><linearGradient id="linear-gradient" x1="89.96" y1="128.5" x2="167.04" y2="128.5" gradientUnits="userSpaceOnUse"><stop offset="0" stop-color="#fff"/><stop offset="1" stop-color="#fff"/></linearGradient><linearGradient id="linear-gradient-2" x1="119.62" y1="119.31" x2="130.06" y2="119.31" xlink:href="#linear-gradient"/></defs><title>Asset 7</title><g id="Layer_2" data-name="Layer 2"><g id="Layer_1-2" data-name="Layer 1"><g class="cls-2"><rect class="cls-3" width="256" height="257"/></g><g id="L1_0" data-name="L1 0"><path class="cls-4" d="M167,76.57a.13.13,0,0,1,0-.06s0-.06,0-.09,0,0,0-.07a.24.24,0,0,1,0-.08l0-.07s0,0,0-.07l0-.07a.25.25,0,0,1,0-.07.21.21,0,0,0,0-.06.16.16,0,0,0,0-.07l-.05-.07a.21.21,0,0,0,0-.06l-.09-.09v0l0,0a.39.39,0,0,0-.1-.08l-.05,0-.07,0-.07,0-.06,0-.07,0-.07,0-.06,0-.09,0-.06,0-.08,0H91.21l-.08,0-.07,0-.08,0-.06,0-.07,0-.07,0-.06,0-.07,0-.07,0,0,0a.39.39,0,0,0-.1.08l0,0v0l-.09.09,0,.06a.43.43,0,0,1,0,.07.16.16,0,0,0,0,.07.21.21,0,0,0,0,.06.25.25,0,0,1,0,.07l0,.07s0,.05,0,.07l0,.07a.24.24,0,0,1,0,.08s0,0,0,.07,0,.06,0,.09a.13.13,0,0,1,0,.06V180.43a.13.13,0,0,1,0,.06s0,.06,0,.09,0,0,0,.07a.24.24,0,0,1,0,.08l0,.07s0,0,0,.07l0,.07a.25.25,0,0,1,0,.07.21.21,0,0,0,0,.06.16.16,0,0,0,0,.07.43.43,0,0,1,0,.07l0,.06.09.09v0l0,0a.39.39,0,0,0,.1.08l0,.05.07,0,.07.05.06,0,.07,0,.07,0,.07,0,.07,0,.07,0,.08,0h74.58l.08,0,.07,0,.07,0,.07,0,.07,0,.07,0,.06,0,.07,0,.07,0,.05-.05a.39.39,0,0,0,.1-.08l0,0v0l.09-.09.05-.06a.43.43,0,0,1,0-.07.16.16,0,0,0,0-.07.21.21,0,0,0,0-.06.25.25,0,0,1,0-.07l0-.07s0-.05,0-.07l0-.07a.24.24,0,0,1,0-.08s0-.05,0-.07,0-.06,0-.09a.13.13,0,0,1,0-.06V76.57Zm-5.33,1.72-4.27,4.27H99.56l-4.27-4.27ZM93.08,80.5l4.27,4.27v87.46l-4.27,4.27Zm2.21,98.21,4.27-4.27h57.88l4.27,4.27ZM121.1,167a8.92,8.92,0,0,0,5.84-2.16v6.44H115.27V167Zm-5.83-3.12v-4.27h11.45a5.83,5.83,0,0,1-5.62,4.27Zm0-7.4v-8h13.1a12.61,12.61,0,0,0-1.43,5.84v2.13Zm.21-11.09a5.85,5.85,0,0,1,5.62-4.27,1.57,1.57,0,0,0,1.57-1.57v-2.31a13.5,13.5,0,0,0,2.13.18,12.61,12.61,0,0,0,9.56-4.38v9.79a12.83,12.83,0,0,0-3.7,2.56Zm-.21-20.63V107.87H127a12.7,12.7,0,0,0,7.33,10v6.67a1.53,1.53,0,0,0,0,.3,9.53,9.53,0,0,1-19.06,0Zm14.79,29.59a9.54,9.54,0,1,1,19.07,0v16.93H130.06Zm13.52-12a12.5,12.5,0,0,0-4-.65,12.15,12.15,0,0,0-2.1.18V118.79a13.22,13.22,0,0,0,2.1.18,1.57,1.57,0,1,0,0-3.13,9.54,9.54,0,0,1-9.53-9.53,1.56,1.56,0,0,0-1.56-1.56h-9.44a13.21,13.21,0,0,1,10.53-11.41,17,17,0,0,1,14,16.67Zm-27.66-37.63h-2.21a1.56,1.56,0,0,0-1.57,1.56V124.8a12.68,12.68,0,0,0,7.4,11.51v1.8a16.3,16.3,0,0,0-9.82,4.55V110a17,17,0,0,1,11.86-16.15A16.35,16.35,0,0,0,115.92,104.75Zm-3.36,39.55a8.86,8.86,0,0,0-.42,2.69v24.33h-4.27V154.39A13.22,13.22,0,0,1,112.56,144.3Zm51.36,32.2-4.27-4.27V106.09a1.57,1.57,0,1,0-3.13,0v65.23h-4.27V154.39a12.65,12.65,0,0,0-5.55-10.47V110a20.09,20.09,0,0,0-16.77-19.79l-.17,0A20.07,20.07,0,0,0,106.6,110v36.84a16.2,16.2,0,0,0-1.85,7.54v16.93h-4.27V85.68h56V99.14a1.57,1.57,0,0,0,3.13,0V84.77l4.27-4.27Z"/><path class="cls-5" d="M128.5,114H123a1.56,1.56,0,0,0-1.56,1.57v5.94h-.21a1.57,1.57,0,0,0,0,3.13H123a1.57,1.57,0,0,0,1.57-1.57v-5.94h4a1.57,1.57,0,0,0,0-3.13Z"/></g></g></g></svg>