<svg xmlns="http://www.w3.org/2000/svg" xmlns:xlink="http://www.w3.org/1999/xlink" viewBox="0 0 256 257"><defs><style>.cls-1{fill:none;}.cls-2{clip-path:url(#clip-path);}.cls-3{fill:#0068ff;}.cls-4{fill:url(#linear-gradient);}</style><clipPath id="clip-path"><circle class="cls-1" cx="128" cy="128.5" r="120.5"/></clipPath><linearGradient id="linear-gradient" x1="83.35" y1="130.5" x2="188.65" y2="130.5" gradientUnits="userSpaceOnUse"><stop offset="0" stop-color="#fff"/><stop offset="1" stop-color="#fff"/></linearGradient></defs><title>Asset 8</title><g id="Layer_2" data-name="Layer 2"><g id="Layer_1-2" data-name="Layer 1"><g class="cls-2"><rect class="cls-3" width="256" height="257"/></g><path class="cls-4" d="M178.12,126.15V123c0-8.81-6.7-16-14.92-16-8,0-14.68,7-14.92,15.49h.1l-.1,0v34.58c0,11-8.26,20-18.42,20s-18.43-9-18.43-20v-3c2.55,0,5.27-1.84,5.27-7v-4.41C128,139.77,136,130.1,136,119.14v-3.66h-3.51l-.07-22.84a8.78,8.78,0,0,0-7.22-8.59,5.23,5.23,0,1,0-.12,3.58,5.25,5.25,0,0,1,3.82,5l.08,22.83h-3.51v3.71a14,14,0,0,1-10.1,13.09,15.9,15.9,0,0,1-9.65,0,13.94,13.94,0,0,1-10.08-13.09v-3.71H90.37V92.66a5.27,5.27,0,0,1,3.9-5.06A5.28,5.28,0,1,0,94.16,84a8.77,8.77,0,0,0-7.3,8.62v22.82H83.35v3.65c0,11,8.05,20.65,19.31,23.52v4.41c0,5.18,2.72,7,5.26,7v3c0,13,9.84,23.54,21.94,23.54s21.93-10.57,21.93-23.54v-34.5h0c.18-6.66,5.3-12.08,11.41-12.08,6.29,0,11.41,5.59,11.41,12.46v3.19a12.28,12.28,0,1,0,3.51,0ZM120.21,87.4A1.76,1.76,0,1,1,122,85.64,1.76,1.76,0,0,1,120.21,87.4ZM99.15,83.89a1.76,1.76,0,1,1-1.76,1.75A1.75,1.75,0,0,1,99.15,83.89ZM86.86,119.13V119h5.27v.2a17.44,17.44,0,0,0,12.52,16.43,19.6,19.6,0,0,0,11.79,0A17.43,17.43,0,0,0,129,119.19V119h3.51v.14c0,9.76-7.53,18.35-17.9,20.43a25.18,25.18,0,0,1-7.4.36,21.91,21.91,0,0,1-2.43-.37C94.39,137.48,86.86,128.89,86.86,119.13Zm19.31,27.93v-3.72l.42,0,.53.05c.83.07,1.67.12,2.51.12h.09c.84,0,1.68-.05,2.5-.12l.54-.05.42,0v3.72c0,1.06-.17,3.51-1.75,3.51h-3.51C106.34,150.57,106.17,148.12,106.17,147.06Zm70.19,0a8.77,8.77,0,1,1,8.78-8.77A8.76,8.76,0,0,1,176.36,147.06Z"/></g></g></svg>