<svg xmlns="http://www.w3.org/2000/svg" xmlns:xlink="http://www.w3.org/1999/xlink" viewBox="0 0 256 257"><defs><style>.cls-1{fill:none;}.cls-2{clip-path:url(#clip-path);}.cls-3{fill:#0094ff;}.cls-4{fill:url(#linear-gradient);}.cls-5{fill:url(#linear-gradient-2);}</style><clipPath id="clip-path"><circle class="cls-1" cx="128" cy="128.5" r="120.5"/></clipPath><linearGradient id="linear-gradient" x1="79" y1="128.5" x2="185" y2="128.5" gradientUnits="userSpaceOnUse"><stop offset="0" stop-color="#fff"/><stop offset="1" stop-color="#fff"/></linearGradient><linearGradient id="linear-gradient-2" x1="146.13" y1="105.53" x2="185" y2="105.53" xlink:href="#linear-gradient"/></defs><title>Asset 5</title><g id="Layer_2" data-name="Layer 2"><g id="Layer_1-2" data-name="Layer 1"><g class="cls-2"><rect class="cls-3" width="256" height="257"/></g><path class="cls-4" d="M183.23,158.53a1.77,1.77,0,1,0,0-3.53h-1.76a1.77,1.77,0,1,0-3.54,0H149.67a1.77,1.77,0,1,0-3.54,0h-1.76a1.77,1.77,0,1,0,0,3.53h1.76v5.3h-1.76a1.77,1.77,0,0,0,0,3.54h1.76v1.76h-1.76a1.77,1.77,0,0,0,0,3.54h1.76V178h-30V163.35a17.45,17.45,0,0,0,8.56,2.25,18.2,18.2,0,0,0,17.94-18.41,18.39,18.39,0,0,0-10.06-16.55,16.17,16.17,0,0,0-9.64-25.37A13.68,13.68,0,0,0,110.8,86h-.16a12.36,12.36,0,0,0-24.47.29,8.83,8.83,0,0,0,1.66,17.51h10.3a14.24,14.24,0,0,0,.57,1.49,16.18,16.18,0,0,0-9.64,25.38A18.39,18.39,0,0,0,79,147.19,18.2,18.2,0,0,0,96.94,165.6a17.45,17.45,0,0,0,8.56-2.25V178H80.77a1.77,1.77,0,1,0,0,3.53H183.23a1.77,1.77,0,1,0,0-3.53h-1.76v-5.3h1.76a1.77,1.77,0,1,0,0-3.54h-1.76v-1.76h1.76a1.77,1.77,0,1,0,0-3.54h-1.76v-5.3Zm-95.4-58.3a5.3,5.3,0,0,1,0-10.6,1.76,1.76,0,0,0,1.25-.51,1.81,1.81,0,0,0,.52-1.25,8.82,8.82,0,0,1,17.53-1.37,13.64,13.64,0,0,0-9.65,13.12c0,.21,0,.41,0,.61Zm-5.3,47a14.79,14.79,0,0,1,10-14.17,1.77,1.77,0,0,0,.68-2.94A12.59,12.59,0,0,1,89.46,121a12.31,12.31,0,0,1,12-12.51,1.84,1.84,0,0,0,1.77-1,1.79,1.79,0,0,0-.15-1.85,10.27,10.27,0,0,1-2-6.09,9.79,9.79,0,1,1,19.57,0,10.19,10.19,0,0,1-2,6.09,1.77,1.77,0,0,0-.12,1.84,1.8,1.8,0,0,0,1.6,1A12.33,12.33,0,0,1,132.14,121a12.59,12.59,0,0,1-3.77,9.05,1.77,1.77,0,0,0-.49,1.66,1.8,1.8,0,0,0,1.17,1.28,14.95,14.95,0,0,1-4.39,29,14.16,14.16,0,0,1-11.88-6.55l11.64-11.64a1.77,1.77,0,0,0-2.5-2.5l-9.35,9.36v-18l8.31-8.31a1.77,1.77,0,0,0-2.5-2.5l-5.81,5.82v-8.1a1.77,1.77,0,0,0-3.54,0v8.1L103.22,122a1.77,1.77,0,0,0-2.5,2.5l8.31,8.31v18l-9.35-9.36a1.77,1.77,0,0,0-2.5,2.5l11.64,11.64a14.16,14.16,0,0,1-11.88,6.55A14.67,14.67,0,0,1,82.53,147.19ZM109,178V160.75a17.53,17.53,0,0,0,1.77-1.89,17.53,17.53,0,0,0,1.77,1.89V178Zm68.9,0H149.67v-5.3h28.26Zm0-8.84H149.67v-1.76h28.26Zm0-5.3H149.67v-5.3h28.26Z"/><path class="cls-5" d="M177.83,102.16a12.36,12.36,0,0,0-24.52,0A8.83,8.83,0,0,0,155,119.67h21.2a8.83,8.83,0,0,0,1.66-17.51Zm-1.66,14H155a5.3,5.3,0,0,1,0-10.6,1.76,1.76,0,0,0,1.25-.51,1.8,1.8,0,0,0,.51-1.25,8.84,8.84,0,1,1,17.67,0,1.81,1.81,0,0,0,.52,1.25,1.76,1.76,0,0,0,1.25.51,5.3,5.3,0,1,1,0,10.6Z"/></g></g></svg>