<svg xmlns="http://www.w3.org/2000/svg" xmlns:xlink="http://www.w3.org/1999/xlink" viewBox="0 0 256 257"><defs><style>.cls-1{fill:none;}.cls-2{clip-path:url(#clip-path);}.cls-3{fill:#ffc145;}.cls-4{fill:url(#linear-gradient);}.cls-5{fill:url(#linear-gradient-2);}.cls-6{fill:url(#linear-gradient-3);}.cls-7{fill:url(#linear-gradient-4);}.cls-8{fill:url(#linear-gradient-5);}</style><clipPath id="clip-path"><circle class="cls-1" cx="128" cy="128.5" r="120.5"/></clipPath><linearGradient id="linear-gradient" x1="72.99" y1="128.5" x2="179.01" y2="128.5" gradientUnits="userSpaceOnUse"><stop offset="0" stop-color="#fff"/><stop offset="1" stop-color="#fff"/></linearGradient><linearGradient id="linear-gradient-2" x1="113.63" y1="88.75" x2="171.93" y2="88.75" xlink:href="#linear-gradient"/><linearGradient id="linear-gradient-3" x1="113.63" y1="144.4" x2="127.76" y2="144.4" xlink:href="#linear-gradient"/><linearGradient id="linear-gradient-4" x1="157.8" y1="144.4" x2="171.93" y2="144.4" xlink:href="#linear-gradient"/><linearGradient id="linear-gradient-5" x1="113.63" y1="116.13" x2="171.93" y2="116.13" xlink:href="#linear-gradient"/></defs><title>Asset 11</title><g id="Layer_2" data-name="Layer 2"><g id="Layer_1-2" data-name="Layer 1"><g class="cls-2"><rect class="cls-3" width="256" height="257"/></g><path class="cls-4" d="M171,75.5H114.59a8.47,8.47,0,0,0-8,8.83v72.44s0,0,0,.07a1.43,1.43,0,0,0,.12.58v0h0l4.18,9.61a3.33,3.33,0,0,0,3,2h1.48v7.07a5.13,5.13,0,0,0,.32,1.77H94.2v-31.8a5.31,5.31,0,0,0-5.3-5.3V110.71a14.14,14.14,0,1,0-3.54,0v30.16a5.3,5.3,0,0,0-5.3,5.3V178h-5.3a1.77,1.77,0,1,0,0,3.53H177.23a1.77,1.77,0,1,0,0-3.53h-7.39a5.13,5.13,0,0,0,.32-1.77v-7.07h1.48a3.33,3.33,0,0,0,3-2l4.18-9.61h0s0,0,0,0a1.43,1.43,0,0,0,.12-.58s0-.05,0-.07V84.33A8.47,8.47,0,0,0,171,75.5ZM76.53,96.7a10.6,10.6,0,1,1,10.6,10.6A10.59,10.59,0,0,1,76.53,96.7ZM110.1,84.33a5,5,0,0,1,4.49-5.3H171a5,5,0,0,1,4.49,5.3V155h-21.2v-3.53a5.3,5.3,0,0,0-5.3-5.3H136.6a5.3,5.3,0,0,0-5.3,5.3V155H110.1ZM150.73,155h-15.9v-3.53a1.77,1.77,0,0,1,1.77-1.77H149a1.77,1.77,0,0,1,1.77,1.77ZM83.59,178v-31.8a1.78,1.78,0,0,1,1.77-1.77H88.9a1.76,1.76,0,0,1,1.76,1.77V178Zm37.11,0a1.77,1.77,0,0,1-1.77-1.77v-7.07H126v7.07a1.78,1.78,0,0,1-1.77,1.77ZM156,169.13v7.07a5.38,5.38,0,0,0,.33,1.77H129.2a5.38,5.38,0,0,0,.33-1.77v-7.07Zm10.6,7.07a1.77,1.77,0,0,1-1.77,1.77h-3.53a1.77,1.77,0,0,1-1.77-1.77v-7.07h7.07Zm4.83-10.6H114.1L111,158.53h63.52Z"/><path class="cls-5" d="M118.93,94.93h47.7a5.3,5.3,0,0,0,5.3-5.3V87.87a5.3,5.3,0,0,0-5.3-5.3h-47.7a5.3,5.3,0,0,0-5.3,5.3v1.76A5.3,5.3,0,0,0,118.93,94.93Zm-1.77-7.06a1.77,1.77,0,0,1,1.77-1.77h47.7a1.77,1.77,0,0,1,1.77,1.77v1.76a1.77,1.77,0,0,1-1.77,1.77h-47.7a1.77,1.77,0,0,1-1.77-1.77Z"/><path class="cls-6" d="M120.7,151.47a7.07,7.07,0,1,0-7.07-7.07A7.07,7.07,0,0,0,120.7,151.47Zm0-10.6a3.53,3.53,0,1,1-3.54,3.53A3.53,3.53,0,0,1,120.7,140.87Z"/><path class="cls-7" d="M164.86,137.33a7.07,7.07,0,1,0,7.07,7.07A7.07,7.07,0,0,0,164.86,137.33Zm0,10.6a3.53,3.53,0,1,1,3.54-3.53A3.53,3.53,0,0,1,164.86,147.93Z"/><path class="cls-8" d="M118.93,133.8h47.7a5.3,5.3,0,0,0,5.3-5.3V103.77a5.3,5.3,0,0,0-5.3-5.3h-47.7a5.3,5.3,0,0,0-5.3,5.3V128.5A5.3,5.3,0,0,0,118.93,133.8Zm-1.77-30a1.77,1.77,0,0,1,1.77-1.77h47.7a1.77,1.77,0,0,1,1.77,1.77V128.5a1.77,1.77,0,0,1-1.77,1.77h-47.7a1.77,1.77,0,0,1-1.77-1.77Z"/></g></g></svg>