<svg xmlns="http://www.w3.org/2000/svg" xmlns:xlink="http://www.w3.org/1999/xlink" viewBox="0 0 256 257"><defs><style>.cls-1{fill:none;}.cls-2{clip-path:url(#clip-path);}.cls-3{fill:#ec00b1;}.cls-4{fill:#fff;}</style><clipPath id="clip-path"><circle class="cls-1" cx="128" cy="128.5" r="120.5"/></clipPath></defs><title>Asset 12</title><g id="Layer_2" data-name="Layer 2"><g id="Layer_1-2" data-name="Layer 1"><g class="cls-2"><rect class="cls-3" width="256" height="257"/></g><path class="cls-4" d="M186.13,101.88l-7.64-2a2,2,0,0,0-1.82.42l-26,22.88-14.85-4,11.83-12.23a2,2,0,0,0,0-2.8,1.89,1.89,0,0,0-.87-.49l-7.65-2a2,2,0,0,0-1.25.07l-26.94,10.82L97.14,108.8c-11.28-3-21.32,1.11-28.27,11.64a2,2,0,0,0-.27.57,6,6,0,0,0,4.17,7.27L110,138.88l13.76,15.64a2,2,0,0,0,1,.6l7.65,2a2,2,0,0,0,2.28-2.81L129.39,144a42.71,42.71,0,0,0,9.42,1.12,78.43,78.43,0,0,0,15.84-2.23l5.42-1.11,12.05,9.47a2,2,0,0,0,2.78-.32,2,2,0,0,0,.16-2.22l-5.52-9.54,9.33-4.94a2,2,0,0,0,.82-2.67,2,2,0,0,0-1.24-1l-1.64-.44,10.64-25.58a2,2,0,0,0-1.07-2.58A1.06,1.06,0,0,0,186.13,101.88Zm-47.44,3.69,3.76,1-11,11.4-14.18-3.8Zm19.74,29.9,5.19,1.38,2.85,4.94Zm9.13.28-.92-1.59a2,2,0,0,0-1.2-.92l-15.3-4.11a2,2,0,0,0-1.74,3.47l7.59,6-2.14.44c-10.59,2.17-15.91,3.26-26.17.51l-.68-.18-.43-.85L123.78,133h0l-1.21-2.38-3.53,1.8,10.07,19.77-2.77-.74-23.16-26.36-3,2.61,5,5.67-31.36-8.91a2,2,0,0,1-1.45-2.15,28.08,28.08,0,0,1,5-5.7l12,2.42.78-3.88-8-1.62a19.92,19.92,0,0,1,14-.91l76.43,20.47ZM173,129.1l-17.71-4.74,23.25-20.43,4.44,1.19Z"/><rect class="cls-4" x="95.51" y="117.16" width="3.96" height="3.96" transform="translate(-42.84 182.45) rotate(-74.99)"/><rect class="cls-4" x="103.15" y="119.21" width="3.96" height="3.96" transform="translate(-39.15 191.37) rotate(-75)"/><rect class="cls-4" x="110.8" y="121.25" width="3.96" height="3.96" transform="matrix(0.26, -0.97, 0.97, 0.26, -35.45, 200.27)"/><rect class="cls-4" x="118.46" y="123.3" width="3.96" height="3.96" transform="translate(-31.76 209.17) rotate(-74.99)"/><rect class="cls-4" x="126.11" y="125.35" width="3.96" height="3.96" transform="translate(-28.07 218.08) rotate(-74.99)"/></g></g></svg>