<svg xmlns="http://www.w3.org/2000/svg" xmlns:xlink="http://www.w3.org/1999/xlink" viewBox="0 0 256 257"><defs><style>.cls-1{fill:none;}.cls-2{clip-path:url(#clip-path);}.cls-3{fill:#722be5;}.cls-4{fill:#fff;}.cls-5{fill:url(#linear-gradient);}</style><clipPath id="clip-path"><circle class="cls-1" cx="128" cy="128.5" r="120.5"/></clipPath><linearGradient id="linear-gradient" x1="70.85" y1="87.42" x2="189.4" y2="87.42" gradientUnits="userSpaceOnUse"><stop offset="0" stop-color="#fff"/><stop offset="1" stop-color="#fff"/></linearGradient></defs><title>Asset 13</title><g id="Layer_2" data-name="Layer 2"><g id="Layer_1-2" data-name="Layer 1"><g class="cls-2"><rect class="cls-3" width="256" height="257"/></g><path class="cls-4" d="M105,123.2H92.66A1.77,1.77,0,0,0,90.89,125v17.66a1.77,1.77,0,0,0,1.77,1.77H105a1.77,1.77,0,0,0,1.77-1.77V125A1.77,1.77,0,0,0,105,123.2Zm-1.76,17.67H94.42V126.73h8.84Z"/><path class="cls-4" d="M135.06,123.2H122.69a1.76,1.76,0,0,0-1.76,1.77v17.66a1.76,1.76,0,0,0,1.76,1.77h12.37a1.77,1.77,0,0,0,1.77-1.77V125a1.77,1.77,0,0,0-1.77-1.77Zm-1.77,17.67h-8.83V126.73h8.83Z"/><path class="cls-4" d="M135.06,151.47H122.69a1.76,1.76,0,0,0-1.76,1.76V170.9a1.76,1.76,0,0,0,1.76,1.77h12.37a1.77,1.77,0,0,0,1.77-1.77V153.23a1.77,1.77,0,0,0-1.77-1.76Zm-1.77,17.66h-8.83V155h8.83Z"/><path class="cls-4" d="M163.33,123.2H151a1.77,1.77,0,0,0-1.77,1.77v17.66A1.77,1.77,0,0,0,151,144.4h12.37a1.76,1.76,0,0,0,1.76-1.77V125a1.76,1.76,0,0,0-1.76-1.77Zm-1.77,17.67h-8.83V126.73h8.83Z"/><path class="cls-4" d="M105,151.47H92.66a1.76,1.76,0,0,0-1.77,1.76V170.9a1.77,1.77,0,0,0,1.77,1.77H105a1.77,1.77,0,0,0,1.77-1.77V153.23a1.76,1.76,0,0,0-1.77-1.76Zm-1.76,17.66H94.42V155h8.84Z"/><path class="cls-4" d="M163.33,151.47H151a1.76,1.76,0,0,0-1.77,1.76V170.9a1.77,1.77,0,0,0,1.77,1.77h12.37a1.76,1.76,0,0,0,1.76-1.77V153.23a1.76,1.76,0,0,0-1.76-1.76Zm-1.77,17.66h-8.83V155h8.83Z"/><path class="cls-4" d="M173.93,178V117.9h1.76a1.77,1.77,0,0,0,1.77-1.77V107.3a1.77,1.77,0,0,0-1.77-1.77h-1.76V98.47a1.77,1.77,0,0,0-1.77-1.77h-3.53V77.26a1.76,1.76,0,0,0-1.77-1.76H89.12a1.76,1.76,0,0,0-1.76,1.76V96.7H83.82a1.76,1.76,0,0,0-1.76,1.77v7.06H80.29a1.77,1.77,0,0,0-1.77,1.77v8.83a1.77,1.77,0,0,0,1.77,1.77h1.77V178H75v3.53H181V178ZM90.89,79h74.2V96.7H90.89Zm-5.3,21.2h84.8v5.3H85.59ZM170.39,178H85.59V117.9h84.8Zm-86.57-63.6H82.06v-5.3h91.87v5.3Z"/><path class="cls-4" d="M125.28,85.08a5.42,5.42,0,0,0-3-3.09,6.12,6.12,0,0,0-2.38-.45,6.3,6.3,0,0,0-2.38.44,5.65,5.65,0,0,0-1.85,1.23,5.56,5.56,0,0,0-1.18,1.87,6.32,6.32,0,0,0-.42,2.34,6.4,6.4,0,0,0,.42,2.34,5.42,5.42,0,0,0,1.18,1.86,5.35,5.35,0,0,0,1.85,1.23,6.66,6.66,0,0,0,4.76,0,5.27,5.27,0,0,0,1.83-1.23,5.45,5.45,0,0,0,1.19-1.86,6.4,6.4,0,0,0,.42-2.34,6.32,6.32,0,0,0-.42-2.34Zm-2,4a3.62,3.62,0,0,1-.72,1.28,3.35,3.35,0,0,1-1.15.8,4,4,0,0,1-1.51.27,4.07,4.07,0,0,1-1.52-.27,3.35,3.35,0,0,1-1.15-.8,3.64,3.64,0,0,1-.73-1.28,5.51,5.51,0,0,1-.25-1.69,5.58,5.58,0,0,1,.25-1.7,3.73,3.73,0,0,1,.73-1.28,3.22,3.22,0,0,1,1.15-.8,4.07,4.07,0,0,1,1.52-.28,4,4,0,0,1,1.51.28,3.22,3.22,0,0,1,1.15.8,3.71,3.71,0,0,1,.72,1.28,5.58,5.58,0,0,1,.25,1.7,5.51,5.51,0,0,1-.25,1.69Z"/><path class="cls-5" d="M110.2,81.67v4.94h-5.39V81.67h-2.16v11.5h2.16v-5h5.39v5h2.15V81.67Z"/><path class="cls-5" d="M147.47,91.4V81.67h-2.14v11.5h6.74V91.4Z"/><path class="cls-5" d="M125.79,81.67v1.76h3.48v9.74h2.14V83.43h3.46V81.67Z"/><path class="cls-5" d="M143.48,83.37v-1.7h-7.25v11.5h7.25V91.46h-5.1V88.2h4V86.56h-4V83.37Z"/></g></g></svg>