<svg xmlns="http://www.w3.org/2000/svg" xmlns:xlink="http://www.w3.org/1999/xlink" viewBox="0 0 256 257"><defs><style>.cls-1{fill:none;}.cls-2{clip-path:url(#clip-path);}.cls-3{fill:#00b391;}.cls-4{fill:url(#linear-gradient);}.cls-5{fill:url(#linear-gradient-2);}.cls-6{fill:url(#linear-gradient-3);}.cls-7{fill:url(#linear-gradient-4);}.cls-8{fill:url(#linear-gradient-5);}</style><clipPath id="clip-path"><circle class="cls-1" cx="128" cy="128.5" r="120.5"/></clipPath><linearGradient id="linear-gradient" x1="117.41" y1="107.73" x2="120.94" y2="107.73" gradientUnits="userSpaceOnUse"><stop offset="0" stop-color="#fff"/><stop offset="1" stop-color="#fff"/></linearGradient><linearGradient id="linear-gradient-2" x1="135.06" y1="107.73" x2="138.59" y2="107.73" xlink:href="#linear-gradient"/><linearGradient id="linear-gradient-3" x1="122.7" y1="112.15" x2="129.77" y2="112.15" xlink:href="#linear-gradient"/><linearGradient id="linear-gradient-4" x1="119.69" y1="121.23" x2="136.31" y2="121.23" xlink:href="#linear-gradient"/><linearGradient id="linear-gradient-5" x1="80.33" y1="124.5" x2="175.67" y2="124.5" xlink:href="#linear-gradient"/></defs><title>Asset 6</title><g id="Layer_2" data-name="Layer 2"><g id="Layer_1-2" data-name="Layer 1"><g class="cls-2"><rect class="cls-3" width="256" height="257"/></g><path class="cls-4" d="M119.17,110.38a1.77,1.77,0,0,0,1.77-1.77v-1.76a1.77,1.77,0,1,0-3.53,0v1.76A1.76,1.76,0,0,0,119.17,110.38Z"/><path class="cls-5" d="M136.83,110.38a1.76,1.76,0,0,0,1.76-1.77v-1.76a1.77,1.77,0,1,0-3.53,0v1.76A1.77,1.77,0,0,0,136.83,110.38Z"/><path class="cls-6" d="M123.68,115.5l3.53,1.76a1.77,1.77,0,0,0,1.58-3.16h0l-1.74-.87,2.42-3.63a1.77,1.77,0,1,0-2.94-2l-3.53,5.3a1.77,1.77,0,0,0,.49,2.45l.19.11Z"/><path class="cls-7" d="M120.22,121a10.42,10.42,0,0,0,14.69.87,11.9,11.9,0,0,0,.87-.87l.53-.53-2.5-2.49-.53.53a7,7,0,0,1-9.85.7,6.7,6.7,0,0,1-.71-.7l-.52-.53-2.51,2.49Z"/><path class="cls-8" d="M166.84,141.76v-1.37A19.44,19.44,0,0,0,147.42,121h-.18a20.91,20.91,0,0,0,1.86-7.06h.08a7.07,7.07,0,1,0,0-14.13V89.19h14.13V85.66H149.08A15.91,15.91,0,0,0,133.3,71.54H122.7a15.91,15.91,0,0,0-15.78,14.12h-.1V99.78a7.07,7.07,0,1,0,0,14.13h.09a20.91,20.91,0,0,0,1.86,7.06h-.19a19.44,19.44,0,0,0-19.42,19.42v1.37a22.89,22.89,0,0,0-8.83,18.05v17.65h95.34V159.81A22.89,22.89,0,0,0,166.84,141.76Zm-17.66-38.44a3.53,3.53,0,1,1,0,7.06Zm-42.36,7.06a3.53,3.53,0,1,1,0-7.06Zm40.6,14.12a15.89,15.89,0,0,1,15.84,14.95,22.75,22.75,0,0,0-10.54-2.59H136.83v-5.47a21.23,21.23,0,0,0,8.34-6.89ZM122.7,75.07h10.6a12.38,12.38,0,0,1,12.23,10.59H110.47A12.38,12.38,0,0,1,122.7,75.07ZM110.35,99.78V89.19h35.3V92l-2.27,2.28a12.36,12.36,0,0,1-15.1,1.86l-8.2-4.92a1.77,1.77,0,0,0-2.42.6,1.73,1.73,0,0,0-.25.91v2a5.3,5.3,0,0,1-3.62,5l-3.44,1.14Zm0,4.81,4.55-1.52a8.8,8.8,0,0,0,6-7.27l5.59,3.35A15.86,15.86,0,0,0,145.65,97v15.18a17.65,17.65,0,1,1-35.3,0Zm23,28v7.77a5.3,5.3,0,0,1-10.6,0v-7.77A20.48,20.48,0,0,0,133.3,132.62Zm-24.72-8.12h2.25a21.23,21.23,0,0,0,8.34,6.89v5.47H103.28a22.75,22.75,0,0,0-10.54,2.59A15.89,15.89,0,0,1,108.58,124.5Zm3.53,15.89v12.36A5.3,5.3,0,0,1,110,157l-8.47,6.36v-4.41l3.53-2.65a8.88,8.88,0,0,0,3.53-7.06v-8.83ZM98,173.93H83.86V170.4H98Zm.7-17.3A1.77,1.77,0,0,0,98,158v8.83H83.86v-7.06a19.45,19.45,0,0,1,19.42-19.42h1.77v8.83a5.33,5.33,0,0,1-2.12,4.23Zm55.79,13.77v3.53h-53v-6.18l10.59-7.94a8.85,8.85,0,0,0,3.53-7.06V140.39h3.53a8.83,8.83,0,0,0,17.66,0h3.53v12.36a8.85,8.85,0,0,0,3.53,7.06l10.59,7.94Zm0-7.06L146,157a5.3,5.3,0,0,1-2.12-4.23V140.39h3.53v8.83a8.88,8.88,0,0,0,3.53,7.06l3.53,2.65Zm17.66,10.59H158V170.4h14.13Zm0-7.06H158V158a1.77,1.77,0,0,0-.7-1.41l-4.24-3.18a5.33,5.33,0,0,1-2.12-4.23v-8.83h1.77a19.45,19.45,0,0,1,19.42,19.42Z"/></g></g></svg>