<svg xmlns="http://www.w3.org/2000/svg" xmlns:xlink="http://www.w3.org/1999/xlink" viewBox="0 0 256 257"><defs><style>.cls-1{fill:none;}.cls-2{clip-path:url(#clip-path);}.cls-3{fill:#5e35b1;}.cls-4{fill:url(#linear-gradient);}.cls-5{fill:url(#linear-gradient-2);}</style><clipPath id="clip-path"><circle class="cls-1" cx="128" cy="128.5" r="120.5"/></clipPath><linearGradient id="linear-gradient" x1="74.69" y1="124.5" x2="181.31" y2="124.5" gradientUnits="userSpaceOnUse"><stop offset="0" stop-color="#fff"/><stop offset="1" stop-color="#fff"/></linearGradient><linearGradient id="linear-gradient-2" x1="123.47" y1="96.38" x2="132.53" y2="96.38" xlink:href="#linear-gradient"/></defs><title>Asset 10</title><g id="Layer_2" data-name="Layer 2"><g id="Layer_1-2" data-name="Layer 1"><g class="cls-2"><rect class="cls-3" width="256" height="257"/></g><path class="cls-4" d="M180,104.42,144.76,81.74a1.53,1.53,0,0,0-2.1.46,1.51,1.51,0,0,0,.46,2.09l34.73,22.35h-8.1L130.22,81.2h0a4.12,4.12,0,0,0-4.44,0L86.25,106.64h-8.1L128,74.56l7.06,4.55a1.52,1.52,0,0,0,1.64-2.55L129.64,72a3,3,0,0,0-3.28,0L76,104.42a2.85,2.85,0,0,0,1.54,5.25h7.64v9.79a2.52,2.52,0,0,0,2,2.45v2.67a2.52,2.52,0,0,0,2.51,2.51h.21v18.55a1.52,1.52,0,1,0,3,0V125.57a1.51,1.51,0,0,0-1.52-1.51H90.2V122h10.73v2.09h-1.2a1.51,1.51,0,0,0-1.52,1.51V159a1.52,1.52,0,0,0,1.52,1.52h1.2v2.27H90.2v-2.27h1.2A1.52,1.52,0,0,0,92.92,159v-3.87a1.52,1.52,0,0,0-3,0v2.36h-.21A2.51,2.51,0,0,0,87.17,160v2.66a2.52,2.52,0,0,0-2,2.46v3H79.82a3,3,0,0,0-3,3v3.19a3,3,0,0,0,3,3h96.36a3,3,0,0,0,3-3v-3.19a3,3,0,0,0-3-3h-5.36v-3a2.52,2.52,0,0,0-2-2.46V160a2.51,2.51,0,0,0-2.51-2.51h-.21V127.09h.21a2.52,2.52,0,0,0,2.51-2.51v-2.67a2.52,2.52,0,0,0,2-2.45v-9.79h7.64a2.85,2.85,0,0,0,1.54-5.25ZM127.42,83.75a1.06,1.06,0,0,1,1.16,0h0l35.57,22.89H91.85Zm-9.8,32.65v3.06a2.51,2.51,0,0,0,2,2.45v2.67a2.51,2.51,0,0,0,2.5,2.51h.21v30.43h-.21a2.5,2.5,0,0,0-2.5,2.51v2.66a2.51,2.51,0,0,0-2,2.46v3H106v-3a2.52,2.52,0,0,0-2-2.46V160a2.51,2.51,0,0,0-2.51-2.51h-.21V127.09h.21a2.52,2.52,0,0,0,2.51-2.51v-2.67a2.52,2.52,0,0,0,2-2.45V116.4Zm32.43,0v3.06a2.52,2.52,0,0,0,2,2.45v2.67a2.52,2.52,0,0,0,2.51,2.51h.21v30.43h-.21A2.51,2.51,0,0,0,152,160v2.66a2.52,2.52,0,0,0-2,2.46v3H138.38v-3a2.51,2.51,0,0,0-2-2.46V160a2.5,2.5,0,0,0-2.5-2.51h-.21V127.09h.21a2.51,2.51,0,0,0,2.5-2.51v-2.67a2.51,2.51,0,0,0,2-2.45V116.4Zm17.74,2.54H153.08V116.4h14.71v2.54Zm-3.19,41.61h1.2v2.27H155.07v-2.27h1.2a1.52,1.52,0,0,0,1.52-1.52V125.57a1.51,1.51,0,0,0-1.52-1.51h-1.2V122H165.8v2.09h-1.2a1.51,1.51,0,0,0-1.52,1.51V159A1.52,1.52,0,0,0,164.6,160.55Zm-40.76-36.49h-1.2V122h10.72v2.09h-1.2a1.51,1.51,0,0,0-1.51,1.51V159a1.52,1.52,0,0,0,1.51,1.52h1.2v2.27H122.64v-2.27h1.2a1.52,1.52,0,0,0,1.51-1.52V125.57A1.51,1.51,0,0,0,123.84,124.06Zm-3.19,41.72a1.72,1.72,0,0,0,.47.07h13.75a1.51,1.51,0,0,0,.48-.08v2.43h-14.7Zm14.7-46.84h-14.7V116.4h14.7Zm-32.43,0H88.21V116.4h14.71v2.54ZM88.21,165.77a1.51,1.51,0,0,0,.48.08h13.75a1.51,1.51,0,0,0,.48-.08v2.43H88.21v-2.43Zm88,5.47v3.19H79.81v-3.2Zm-23.11-3v-2.43a1.5,1.5,0,0,0,.47.08h13.76a1.51,1.51,0,0,0,.48-.08v2.43Zm14.71-54.83H88.21v-3.7h79.58v3.7Z"/><path class="cls-5" d="M127.67,103.57c-2.51,0-4.2-1.39-4.2-2.38,0-.49.42-1.15.92-1.15.67,0,1.22,1.41,3.28,1.57V96.87c-1.82-.65-3.84-1.38-3.84-4s1.92-3.56,3.84-3.76v-.58a.53.53,0,0,1,.58-.47c.31,0,.61.22.61.47v.54c1.37,0,3.31.47,3.31,1.45,0,.39-.28,1.16-.89,1.16s-1-.65-2.42-.75v4.1c1.76.65,3.67,1.53,3.67,4.28a3.9,3.9,0,0,1-3.67,4.16v.69c0,.24-.3.46-.61.46a.53.53,0,0,1-.58-.46v-.63Zm.12-8.88V91c-1.13.14-1.94.65-1.94,1.7S126.72,94.28,127.79,94.69Zm1,2.62v4.26a1.92,1.92,0,0,0,1.77-2A2.36,2.36,0,0,0,128.74,97.31Z"/></g></g></svg>